#N canvas 1361 71 1918 996 10;
#X obj 179 431 stp_comp~;
#X obj 931 222 osc~ 440;
#X text 1233 36 <-Click to start;
#X text 1226 85 <-Click to stop;
#X msg 1149 76 \; pd dsp 0 \;;
#X msg 1152 23 \; pd dsp 1 \;;
#X obj 958 98 vsl 15 50 0.001 1 0 0 empty empty KickVolume 0 -9 0 10
-191407 -258113 -4160 0 1;
#X obj 966 442 - 100;
#X obj 932 340 *~;
#X obj 964 392 env~;
#X obj 1055 184 nbx 5 14 -1e+37 1e+37 0 0 empty empty empty 0 -8 0
10 -262144 -1 -1 0 256;
#X obj 180 507 - 100;
#X obj 185 473 env~;
#X obj 189 565 vu 15 120 empty empty -1 -8 0 10 -66577 -1 1 0;
#X text 154 702 Compressor Output;
#X obj 92 83 vsl 15 56 0 6 0 0 empty empty Makeup_Gain -22 -9 0 10
-191407 -1 -159808 0 1;
#X obj 243 85 vsl 15 56 -40 0 0 0 empty empty Threshold -22 -9 0 10
-191407 -1 -258113 0 1;
#X obj 344 86 vsl 15 56 1 10 0 1 empty empty Ratio -8 -9 0 10 -191407
-1 -258113 800 1;
#X obj 433 86 vsl 15 56 0.001 3 1 0 empty empty Attack -10 -9 0 10
-191407 -1 -4160 0 1;
#X obj 516 86 vsl 15 56 0.001 3 1 0 empty empty Release -12 -9 0 10
-191407 -1 -4160 0 1;
#X floatatom 91 243 5 0 0 1 dB - -, f 5;
#X floatatom 242 246 5 0 0 1 dB - -, f 5;
#X obj 431 185 * 1000;
#X obj 507 184 * 1000;
#X obj 124 156 s MakeupGain;
#X obj 197 324 r MakeupGain;
#X obj 293 324 r Threshold;
#X obj 258 158 s Threshold;
#X obj 76 324 receive~ Audio;
#X obj 360 160 s Ratio;
#X obj 388 324 r Ratio;
#X obj 439 160 s Attack;
#X obj 455 324 r Attack;
#X obj 513 161 s Release;
#X obj 528 322 r Release;
#X text 240 35 Compressor Parameters;
#X text 219 293 Compressor;
#X obj 759 257 readsf~ 2;
#X obj 754 137 metro 500;
#X obj 756 170 bng 15 250 50 0 empty empty empty 17 7 0 10 -262144
-1 -1;
#X msg 754 207 open kick.wav \, 1;
#X text 790 40 Choose a test signal;
#X obj 764 329 *~;
#X text 953 63 Kick;
#X text 1042 60 Sinus Wave;
#X floatatom 1044 307 5 0 0 1 dB - -, f 5;
#X obj 1042 222 rmstodb;
#X obj 1043 257 - 100;
#X obj 1048 97 vsl 15 50 0.001 1 0 0 empty empty SinusVolume 0 -9 0
10 -191407 -258113 -260097 0 1;
#X obj 759 87 bng 15 250 50 0 empty empty empty 17 7 0 10 -262144 -1
-1;
#X obj 715 440 - 100;
#X obj 713 390 env~;
#X obj 292 746 nbx 5 14 -1e+37 1e+37 0 0 empty empty empty 0 -8 0 10
-262144 -1 -1 -100 256;
#X floatatom 288 702 5 0 0 0 - - -, f 5;
#X obj 613 322 r Knee;
#X obj 601 91 tgl 30 0 empty empty Knee 0 -10 0 10 -262144 -1 -45076
0 1;
#X floatatom 602 249 5 0 0 3 1=Hard|0=Soft_Knee - -, f 5;
#X obj 652 164 s Knee;
#X floatatom 511 246 5 0 0 3 Release(ms) - -, f 5;
#X floatatom 429 247 5 0 0 3 Attack(ms) - -, f 5;
#X floatatom 344 245 5 0 0 3 Ratio - -, f 5;
#X obj 262 479 dac~;
#X text 243 504 Play the audio;
#X text 362 747 .wav;
#X obj 825 414 send~ Audio;
#X text 789 438 Connect the audio here;
#X obj 357 570 vu 15 120 empty empty -1 -8 0 10 -66577 -1 1 0;
#X obj 459 740 nbx 5 14 -1e+37 1e+37 0 0 empty empty empty 0 -8 0 10
-262144 -1 -1 -100 256;
#X obj 459 565 vu 15 120 empty empty -1 -8 0 10 -66577 -1 1 0;
#X text 160 747 Original Output;
#X text 524 739 Sinus;
#X connect 0 0 12 0;
#X connect 0 0 61 0;
#X connect 0 0 61 1;
#X connect 1 0 8 0;
#X connect 6 0 42 1;
#X connect 7 0 68 0;
#X connect 8 0 9 0;
#X connect 9 0 7 0;
#X connect 10 0 8 1;
#X connect 10 0 46 0;
#X connect 11 0 13 0;
#X connect 12 0 11 0;
#X connect 13 0 53 0;
#X connect 15 0 20 0;
#X connect 15 0 24 0;
#X connect 16 0 27 0;
#X connect 16 0 21 0;
#X connect 17 0 29 0;
#X connect 17 0 60 0;
#X connect 18 0 22 0;
#X connect 18 0 31 0;
#X connect 19 0 23 0;
#X connect 19 0 33 0;
#X connect 22 0 59 0;
#X connect 23 0 58 0;
#X connect 25 0 0 1;
#X connect 26 0 0 2;
#X connect 28 0 0 0;
#X connect 30 0 0 3;
#X connect 32 0 0 4;
#X connect 34 0 0 5;
#X connect 37 0 42 0;
#X connect 38 0 39 0;
#X connect 39 0 40 0;
#X connect 40 0 37 0;
#X connect 42 0 51 0;
#X connect 42 0 64 0;
#X connect 46 0 47 0;
#X connect 47 0 45 0;
#X connect 48 0 10 0;
#X connect 49 0 38 0;
#X connect 50 0 66 0;
#X connect 51 0 50 0;
#X connect 54 0 0 6;
#X connect 55 0 56 0;
#X connect 55 0 57 0;
#X connect 66 0 52 0;
#X connect 68 0 67 0;
